<svg t="1629187785604" class="icon" viewBox="0 0 1024 1024" version="1.1" xmlns="http://www.w3.org/2000/svg" p-id="1201" width="200" height="200"><path d="M816.536 991.997l-597.332 0c-60 0-108.607-53.719-108.607-120l0-299.998c0-66.277 48.607-120 108.607-120l0-90c0-182.257 133.692-329.999 298.664-329.999 164.944 0 298.668 147.743 298.668 329.999l0 1.878-0.347 0c-0.938 15.638-12.413 28.125-26.817 28.125-14.372 0-25.88-12.487-26.789-28.125l-0.338 0 0-1.878c0-149.119-109.406-269.997-244.377-269.997s-244.345 120.879-244.345 269.997l0 90 543.013 0c59.972 0 108.609 53.723 108.609 120l0 299.999c-0.005 66.281-48.642 119.999-108.609 119.999l0 0zM870.822 571.999c0-33.141-24.286-60-54.286-60l-597.332 0c-30 0-54.319 26.859-54.319 60l0 299.999c0 33.141 24.319 60 54.319 60l597.331 0c29.972 0 54.286-26.859 54.286-60l0-299.999 0.001 0zM544.999 745.933l0 96.066c0 16.566-12.131 30-27.131 30s-27.159-13.439-27.159-30l0-96.066c-31.477-12.431-54.291-44.869-54.291-83.92 0-49.716 36.45-90.014 81.45-90.014 44.972 0 81.45 40.298 81.45 90.014-0.001 39.052-22.843 71.489-54.319 83.92l0 0zM517.868 631.998c-15 0-27.159 13.434-27.159 30.014 0 16.547 12.159 29.986 27.159 29.986 15 0 27.131-13.439 27.131-29.986 0-16.58-12.131-30.014-27.131-30.014l0 0z" p-id="1202"></path></svg>